<?xml version="1.0" standalone="no"?>
<!DOCTYPE svg PUBLIC "-//W3C//DTD SVG 20010904//EN"
 "http://www.w3.org/TR/2001/REC-SVG-20010904/DTD/svg10.dtd">
<svg version="1.0" xmlns="http://www.w3.org/2000/svg"
 width="432.000000pt" height="432.000000pt" viewBox="0 0 432.000000 432.000000"
 preserveAspectRatio="xMidYMid meet">
<metadata>
Created by potrace 1.14, written by Peter Selinger 2001-2017
</metadata>
<g transform="translate(0.000000,432.000000) scale(0.100000,-0.100000)"
fill="#000000" stroke="none">
<path d="M850 4313 c-140 -24 -280 -94 -384 -192 -96 -92 -158 -194 -202 -336
-18 -58 -19 -122 -19 -1605 0 -850 3 -1565 7 -1590 18 -127 110 -291 217 -393
80 -75 162 -124 276 -164 l80 -28 1315 -2 c1254 -1 1318 0 1387 17 147 38 262
107 363 217 71 77 115 151 154 260 l31 88 0 1545 c0 850 -3 1568 -7 1595 -19
140 -102 290 -222 402 -76 72 -167 125 -274 162 l-77 26 -1310 1 c-720 1
-1321 0 -1335 -3z m2593 -491 c66 -24 120 -80 141 -144 15 -48 16 -181 14
-1543 l-3 -1490 -34 -51 c-18 -28 -54 -64 -80 -80 l-46 -29 -1270 0 -1270 0
-40 21 c-51 28 -88 65 -112 112 -17 35 -18 102 -21 1512 -2 1096 0 1489 9
1529 9 45 20 64 63 106 34 34 65 56 91 62 27 7 449 11 1275 12 1140 0 1239 -1
1283 -17z"/>
<path d="M2185 3351 c-31 -13 -59 -47 -118 -139 -28 -45 -146 -229 -262 -408
-115 -179 -217 -336 -225 -349 -20 -34 -117 -183 -219 -340 -46 -71 -85 -141
-86 -155 -4 -55 49 -110 107 -110 13 0 176 43 363 96 187 52 347 97 355 99 8
2 61 17 118 33 56 16 102 28 102 26 0 -3 -404 -945 -426 -992 -24 -51 -24 -67
-1 -101 37 -51 108 -66 163 -32 35 21 19 -1 403 596 156 242 330 512 387 600
65 101 104 170 104 187 0 72 -53 114 -134 105 -28 -4 -62 -8 -76 -11 -14 -3
-36 -7 -50 -9 -14 -3 -63 -12 -110 -21 -47 -8 -96 -17 -110 -20 -14 -2 -99
-18 -190 -35 -91 -16 -178 -33 -195 -36 -16 -3 -41 -7 -55 -10 -143 -27 -175
-33 -179 -30 -3 3 61 128 169 330 21 39 61 115 90 170 29 55 72 136 95 180
115 215 145 278 145 299 0 35 -49 75 -100 81 -25 3 -54 1 -65 -4z"/>
</g>
</svg>
