<?xml version="1.0" standalone="no"?>
<!DOCTYPE svg PUBLIC "-//W3C//DTD SVG 20010904//EN"
 "http://www.w3.org/TR/2001/REC-SVG-20010904/DTD/svg10.dtd">
<svg version="1.0" xmlns="http://www.w3.org/2000/svg"
 width="320.000000pt" height="320.000000pt" viewBox="0 0 320.000000 320.000000"
 preserveAspectRatio="xMidYMid meet">
<metadata>
Created by potrace 1.14, written by Peter Selinger 2001-2017
</metadata>
<g transform="translate(0.000000,320.000000) scale(0.100000,-0.100000)"
fill="#000000" stroke="none">
<path d="M566 3183 c-112 -23 -217 -119 -248 -226 -18 -65 -17 -2667 1 -2722
22 -64 76 -137 129 -173 96 -65 42 -62 1166 -60 l1021 3 57 27 c69 32 135 96
168 163 l25 50 3 980 c2 930 1 983 -16 1047 -19 66 -66 155 -106 200 -12 13
-73 84 -136 158 -63 74 -117 137 -120 140 -3 3 -55 64 -114 135 -171 203 -219
243 -336 275 -65 18 -1407 20 -1494 3z m1488 -178 c38 -18 68 -51 425 -465 79
-91 154 -178 168 -194 14 -15 35 -49 46 -75 22 -46 22 -47 22 -1032 0 -1068 3
-1018 -55 -1052 -26 -16 -114 -17 -1065 -17 -766 0 -1042 3 -1058 12 -30 16
-45 32 -57 63 -6 17 -10 489 -10 1351 0 1397 -1 1366 44 1403 9 7 30 16 48 20
17 4 351 6 742 6 676 -1 713 -2 750 -20z"/>
<path d="M1030 2632 c-66 -22 -135 -96 -155 -166 -22 -75 -18 -513 5 -561 27
-56 68 -101 121 -130 l53 -28 296 0 c210 -1 310 3 342 12 58 16 110 59 146
119 l27 47 3 256 c3 253 3 256 -21 311 -29 65 -65 102 -127 131 -42 20 -62 21
-346 22 -238 1 -310 -2 -344 -13z m597 -167 c66 -40 73 -66 73 -270 0 -161 -2
-181 -21 -215 -39 -70 -56 -74 -304 -76 -226 -1 -250 2 -294 40 -44 39 -51 73
-51 251 0 204 10 238 85 278 25 13 69 16 250 16 216 0 221 0 262 -24z"/>
<path d="M940 1399 c-60 -13 -92 -66 -70 -119 25 -59 6 -58 687 -56 l623 1 24
25 c31 30 38 66 21 100 -27 54 -18 53 -659 54 -327 1 -609 -2 -626 -5z"/>
<path d="M933 942 c-30 -4 -73 -57 -73 -89 0 -36 51 -83 92 -84 226 -6 808 1
831 10 33 13 57 63 48 99 -4 14 -20 35 -35 46 -27 20 -39 21 -434 21 -224 1
-417 -1 -429 -3z"/>
</g>
</svg>
